<svg xmlns="http://www.w3.org/2000/svg" version="1.1" xmlns:xlink="http://www.w3.org/1999/xlink" width="512" height="512" x="0" y="0" viewBox="0 0 58 55" style="enable-background:new 0 0 512 512" xml:space="preserve" class=""><g><g fill="none" fill-rule="nonzero"><path fill="#ecf0f1" d="M38.8 47H55a3 3 0 0 0 3-3V10H0v34a3 3 0 0 0 3 3z" opacity="1" data-original="#ecf0f1" class=""></path><path fill="#95a5a5" d="M54 44h-4a1 1 0 0 1 0-2h3v-3a1 1 0 0 1 2 0v4a1 1 0 0 1-1 1z" opacity="1" data-original="#95a5a5"></path><path fill="#464f5d" d="M3 0h52a3 3 0 0 1 3 3v9H0V3a3 3 0 0 1 3-3z" opacity="1" data-original="#464f5d" class=""></path><circle cx="6" cy="6" r="2" fill="#24ae5f" opacity="1" data-original="#24ae5f"></circle><circle cx="14" cy="6" r="2" fill="#f3d55b" opacity="1" data-original="#f3d55b"></circle><circle cx="22" cy="6" r="2" fill="#ff5364" opacity="1" data-original="#ff5364"></circle><g fill="#bdc3c7"><path d="M26 18H5a1 1 0 0 1 0-2h21a1 1 0 0 1 0 2zM26 23H5a1 1 0 0 1 0-2h21a1 1 0 0 1 0 2zM26 28H5a1 1 0 0 1 0-2h21a1 1 0 0 1 0 2zM26 33H5a1 1 0 0 1 0-2h21a1 1 0 0 1 0 2zM21.62 38H5a1 1 0 0 1 0-2h16.62a1 1 0 0 1 0 2zM15 43H5a1 1 0 0 1 0-2h10a1 1 0 0 1 0 2zM53 18H32a1 1 0 0 1 0-2h21a1 1 0 0 1 0 2zM43 23H32a1 1 0 0 1 0-2h11a1 1 0 0 1 0 2zM36 28h-4a1 1 0 0 1 0-2h4a1 1 0 0 1 0 2zM50.949 35.741l-4.11 2.84-5.69-8.22 2.38-1.65 1.73-1.2z" fill="#bdc3c7" opacity="1" data-original="#bdc3c7" class=""></path></g><path fill="#3b97d3" d="m46.839 38.581-2.84 1.97-16.9 11.68-5.69-8.22 19.74-13.65z" opacity="1" data-original="#3b97d3"></path><path fill="#ff5364" d="m56.709 31.761-5.76 3.98-5.69-8.23 5.76-3.98a3 3 0 0 1 4.17.76l2.28 3.29a3.01 3.01 0 0 1-.76 4.18z" opacity="1" data-original="#ff5364"></path><path fill="#fdd7ad" d="m27.099 52.231-6.25 1.52-3.06-4.43 3.62-5.31z" opacity="1" data-original="#fdd7ad"></path><path fill="#464f5d" d="m20.849 53.751-4.76 1.15a1 1 0 0 1-1.06-1.53l2.76-4.05z" opacity="1" data-original="#464f5d" class=""></path></g></g></svg>