<svg xmlns="http://www.w3.org/2000/svg" version="1.1" xmlns:xlink="http://www.w3.org/1999/xlink" width="512" height="512" x="0" y="0" viewBox="0 0 58 58" style="enable-background:new 0 0 512 512" xml:space="preserve" class=""><g><g fill="none" fill-rule="nonzero"><path fill="#f0c419" d="M58 19 34.53 38.5l-1.07.89a6.974 6.974 0 0 1-8.92 0l-1.07-.89L0 19l9-6.38L19.76 5l4.78-3.39a6.974 6.974 0 0 1 8.92 0L38.24 5 49 12.62z" opacity="1" data-original="#f0c419" class=""></path><path fill="#f9eab0" d="M49 47V6a1.063 1.063 0 0 0-1.11-1H10.11A1.063 1.063 0 0 0 9 6v41z" opacity="1" data-original="#f9eab0" class=""></path><path fill="#cc4b4c" d="M30.238 32.99a22.112 22.112 0 0 1-6.604-1.042 9.99 9.99 0 0 1-6.636-7.563c-.753-3.626.62-7.46 3.764-10.52a17.43 17.43 0 0 1 1.052-.944 12.746 12.746 0 0 1 11.605-2.505 9.717 9.717 0 0 1 6.756 8.937 9.206 9.206 0 0 1-2.152 6.506 5.058 5.058 0 0 1-4.946 1.816A2.857 2.857 0 0 1 31.24 26.4a2.715 2.715 0 0 1-.264-2.11c.875-3.306 1.764-8.33 1.773-8.38a1 1 0 1 1 1.97.348c-.037.209-.913 5.157-1.809 8.543a.722.722 0 0 0 .045.569.89.89 0 0 0 .58.357 3.106 3.106 0 0 0 2.985-1.185 7.198 7.198 0 0 0 1.66-5.087 7.735 7.735 0 0 0-5.356-7.13 10.701 10.701 0 0 0-9.734 2.135c-.321.267-.634.546-.934.838-1.554 1.512-4.037 4.65-3.2 8.68a8.098 8.098 0 0 0 5.285 6.064c4.69 1.497 11.43 1.677 14.98-2.738a1 1 0 0 1 1.559 1.253c-2.626 3.265-6.622 4.433-10.542 4.433z" opacity="1" data-original="#cc4b4c" class=""></path><path fill="#cc4b4c" d="M26.815 27.805a4.598 4.598 0 0 1-2.92-.981c-1.919-1.536-1.972-4.205-1.434-6.022.182-.605.425-1.19.727-1.745a8.198 8.198 0 0 1 3.435-3.565 4.729 4.729 0 0 1 5.563.896 7.484 7.484 0 0 1 1.594 2.746 1 1 0 0 1-1.884.67 5.579 5.579 0 0 0-1.156-2.035 2.707 2.707 0 0 0-3.234-.483 6.269 6.269 0 0 0-2.565 2.733 7.16 7.16 0 0 0-.563 1.356c-.389 1.314-.304 3.03.769 3.888 1.172.942 3.15.544 4.263-.416a11.152 11.152 0 0 0 2.113-2.572 1 1 0 1 1 1.7 1.055 13.128 13.128 0 0 1-2.503 3.027 6.144 6.144 0 0 1-3.905 1.448z" opacity="1" data-original="#cc4b4c" class=""></path><path fill="#f29c1f" d="M58 19v37a1.956 1.956 0 0 1-.65 1.46A1.93 1.93 0 0 1 56 58H2a1.93 1.93 0 0 1-1.35-.54A1.956 1.956 0 0 1 0 56V19l23.47 19.5 1.07.89a6.974 6.974 0 0 0 8.92 0l1.07-.89z" opacity="1" data-original="#f29c1f"></path><path fill="#e57e25" d="M57.35 57.46A1.93 1.93 0 0 1 56 58H2a1.93 1.93 0 0 1-1.35-.54L23.47 38.5l1.07.89a6.974 6.974 0 0 0 8.92 0l1.07-.89z" opacity="1" data-original="#e57e25"></path></g></g></svg>